<?xml version="1.0" encoding="UTF-8" standalone="no"?>
<!-- Created with Inkscape (http://www.inkscape.org/) -->

<svg
   xmlns:dc="http://purl.org/dc/elements/1.1/"
   xmlns:cc="http://creativecommons.org/ns#"
   xmlns:rdf="http://www.w3.org/1999/02/22-rdf-syntax-ns#"
   xmlns:svg="http://www.w3.org/2000/svg"
   xmlns="http://www.w3.org/2000/svg"
   xmlns:sodipodi="http://sodipodi.sourceforge.net/DTD/sodipodi-0.dtd"
   xmlns:inkscape="http://www.inkscape.org/namespaces/inkscape"
   width="210mm"
   height="297mm"
   viewBox="0 0 210 297"
   version="1.1"
   id="svg8"
   inkscape:version="0.92.4 (5da689c313, 2019-01-14)"
   sodipodi:docname="logo.svg">
  <defs
     id="defs2" />
  <sodipodi:namedview
     id="base"
     pagecolor="#ffffff"
     bordercolor="#666666"
     borderopacity="1.0"
     inkscape:pageopacity="0.0"
     inkscape:pageshadow="2"
     inkscape:zoom="0.49497475"
     inkscape:cx="-548.77225"
     inkscape:cy="217.30355"
     inkscape:document-units="mm"
     inkscape:current-layer="layer1"
     showgrid="false"
     inkscape:window-width="1360"
     inkscape:window-height="705"
     inkscape:window-x="1358"
     inkscape:window-y="-8"
     inkscape:window-maximized="1" />
  <metadata
     id="metadata5">
    <rdf:RDF>
      <cc:Work
         rdf:about="">
        <dc:format>image/svg+xml</dc:format>
        <dc:type
           rdf:resource="http://purl.org/dc/dcmitype/StillImage" />
        <dc:title></dc:title>
      </cc:Work>
    </rdf:RDF>
  </metadata>
  <g
     inkscape:label="Layer 1"
     inkscape:groupmode="layer"
     id="layer1">
    <path
       style="fill:#ffffff;stroke-width:0.37797621"
       d="m -327.42621,192.28687 c 0,-0.15875 7.35637,-13.04552 16.34747,-28.63727 18.10383,-31.39437 18.21732,-31.55985 23.5691,-34.36566 5.14987,-2.69995 2.53805,-2.56495 49.52936,-2.55996 46.37303,0.005 43.91442,-0.11119 48.87622,2.3081 1.73762,0.84723 3.30558,2.06073 5.26795,4.07705 2.609,2.68073 3.73126,4.49721 16.9524,27.43923 7.78714,13.51265 14.23156,24.7471 14.32094,24.96544 0.20221,0.49403 -2.51958,1.83585 -2.87767,1.41866 -0.14339,-0.16706 -6.62328,-11.34467 -14.39975,-24.83913 -8.27045,-14.35167 -14.80644,-25.2777 -15.74699,-26.32383 -1.92626,-2.14246 -4.4631,-3.82888 -7.49901,-4.98511 l -2.23734,-0.8521 -41.1994,-0.10843 c -29.52079,-0.0777 -41.9301,0.0136 -43.77712,0.32208 -1.41774,0.23678 -3.71394,1.00052 -5.10268,1.6972 -4.80384,2.40994 -5.55833,3.46938 -18.69284,26.24837 -21.93935,38.04911 -19.1372,33.45461 -20.59879,33.77422 -0.56703,0.12399 -1.41367,0.33442 -1.8814,0.46761 -0.46775,0.1332 -0.85045,0.11228 -0.85045,-0.0465 z"
       id="path23"
       inkscape:connector-curvature="0" />
    <path
       style="fill:#ffffff;stroke-width:0.37797621"
       d="m -163.00657,192.36373 c -1.14516,-0.64127 -3.15123,-3.91484 -14.93006,-24.36333 -7.48392,-12.99238 -14.0596,-24.25634 -14.61261,-25.03102 -0.55301,-0.77467 -1.75481,-1.77125 -2.67067,-2.21461 l -1.66521,-0.80611 -41.17456,0.008 c -39.22274,0.008 -41.24623,0.0414 -42.68647,0.70609 -0.83154,0.38379 -1.89133,1.11041 -2.35508,1.61472 -0.79134,0.86057 -6.55845,10.71907 -22.34556,38.19837 -5.81928,10.12913 -6.76794,11.58351 -7.42733,11.38683 -0.41577,-0.12401 -0.8037,-0.26627 -0.86204,-0.31611 -0.0583,-0.0499 6.41498,-11.38218 14.38516,-25.18296 13.69345,-23.71089 14.59081,-25.15967 16.2996,-26.31561 0.99459,-0.6728 2.46221,-1.39935 3.26139,-1.61455 0.97094,-0.26144 15.09937,-0.35721 42.58179,-0.28862 l 41.12874,0.10265 1.5119,0.81733 c 0.83155,0.44952 2.04866,1.38501 2.70468,2.07886 1.01886,1.07761 30.56657,51.71732 30.2811,51.89662 -0.056,0.0352 -0.69716,-0.2694 -1.42477,-0.67685 z"
       id="path25"
       inkscape:connector-curvature="0" />
    <path
       style="fill:#ffffff;stroke-width:0.37797621"
       d="m -263.23135,174.65375 c -3.52154,-0.93778 -6.12773,-4.92771 -7.45006,-11.40561 -0.77383,-3.79089 -1.50291,-5.15663 -2.75278,-5.15663 -0.6153,0 -0.69738,-0.33065 -0.69738,-2.80935 0,-3.24738 -0.28449,-3.02239 4.53572,-3.58694 6.3205,-0.74026 10.45089,-0.86106 14.74107,-0.43113 5.5306,0.55423 8.46817,1.23704 11.85151,2.75475 3.71069,1.66457 6.58418,1.66383 10.11053,-0.003 4.08986,-1.93272 9.31469,-2.83384 16.59153,-2.86154 5.38274,-0.0205 11.8841,0.50078 14.07962,1.12887 0.55365,0.15839 0.66145,0.64708 0.66145,2.99858 0,2.73768 -0.0239,2.80935 -0.93622,2.80935 -1.32408,0 -1.92645,1.16141 -2.64655,5.10268 -1.02316,5.60002 -3.08267,9.33545 -5.98302,10.85169 -1.35792,0.70988 -2.35009,0.8504 -6.93811,0.98264 -6.22681,0.17947 -8.11952,-0.25493 -10.68733,-2.45288 -2.08391,-1.78375 -3.22426,-3.64096 -4.3465,-7.07885 -1.26145,-3.86436 -1.92579,-5.02681 -3.27006,-5.72196 -2.57227,-1.33017 -4.72504,0.39956 -6.03893,4.85222 -1.5729,5.33038 -4.19457,8.64562 -7.81152,9.87804 -1.99477,0.67969 -10.64767,0.77854 -13.01297,0.14866 z m 12.8798,-2.93852 c 3.06026,-1.56123 5.95719,-6.71929 6.34031,-11.28908 0.2235,-2.66598 0.2175,-2.68841 -1.05715,-3.95105 -1.81795,-1.80083 -5.98586,-2.68251 -12.8102,-2.70986 -4.71417,-0.0189 -5.24507,0.0515 -6.97291,0.92449 -2.49778,1.262 -3.33507,2.49669 -3.53112,5.20709 -0.18259,2.52429 0.92777,6.84437 2.42586,9.43826 1.52005,2.63193 2.8208,3.0832 8.94368,3.10282 4.44877,0.0143 5.42451,-0.0916 6.66153,-0.72267 z m 38.46534,-0.24032 c 1.6408,-1.21745 2.69726,-3.03056 3.72044,-6.38503 1.15863,-3.79855 1.17854,-5.60416 0.0855,-7.7585 -1.73609,-3.42193 -7.16296,-4.55374 -15.63407,-3.26059 -7.1265,1.08789 -8.28697,2.02806 -8.00112,6.48219 0.20622,3.21334 1.71153,6.79921 3.84605,9.16187 2.3063,2.5528 3.05554,2.7648 9.36857,2.65089 4.94711,-0.0893 5.6645,-0.18588 6.61459,-0.89083 z"
       id="path27"
       inkscape:connector-curvature="0" />
    <path
       style="fill:#ffffff;stroke-width:0.37797621"
       d="m -341.03336,249.6801 c -2.87856,-1.1017 -2.38088,-4.0131 1.60319,-9.37877 3.60016,-4.84865 8.19507,-8.62553 13.36043,-10.98187 1.64465,-0.75026 3.24183,-1.49407 3.54928,-1.6529 0.64833,-0.33492 3.07993,-7.60299 3.93012,-11.74701 0.94829,-4.6224 1.44851,-11.15168 0.98594,-12.86954 -0.33983,-1.26204 -0.5561,-1.49124 -1.40713,-1.49124 -1.51495,0 -4.25011,3.16712 -6.4738,7.49618 -3.26416,6.35464 -4.46241,12.62576 -3.33266,17.44163 0.31585,1.34652 0.49307,2.57966 0.39377,2.74032 -0.0993,0.16066 -0.58253,0.29211 -1.07386,0.29211 -1.34972,0 -1.90518,-2.03659 -1.85558,-6.80357 0.07,-6.72307 2.38747,-13.65849 6.15805,-18.42862 3.96973,-5.0221 9.71812,-5.48012 10.99703,-0.87623 1.02082,3.67472 -0.18997,12.56704 -2.79818,20.55057 l -1.21901,3.73137 1.25341,1.25342 1.25341,1.25342 0.006,-1.37962 c 0.003,-0.75878 0.25164,-2.42295 0.55237,-3.69815 1.62838,-6.90504 5.41467,-11.08937 10.02538,-11.07929 3.57805,0.008 4.60153,2.52932 2.61777,6.4493 -1.61821,3.19765 -4.0788,5.0479 -7.30026,5.48945 -1.57512,0.21589 -1.67294,0.30159 -1.88939,1.65516 -0.28072,1.75555 0.0594,3.60798 0.77081,4.19841 0.90366,0.74998 3.29173,-0.26071 5.59948,-2.36986 2.63905,-2.41195 5.60287,-6.88406 6.65235,-10.03776 0.82529,-2.47998 2.07448,-3.80561 3.18472,-3.37958 0.8541,0.32776 0.71238,1.89787 -0.75304,8.34274 -1.33078,5.85274 -1.65205,8.9086 -0.93662,8.9086 0.98492,0 5.63451,-9.41109 7.563,-15.30803 0.80618,-2.46514 1.16761,-3.08679 1.95622,-3.36471 2.04326,-0.72004 2.1767,-0.28268 1.21533,3.98331 -0.48245,2.14083 -0.83086,3.93874 -0.77425,3.99535 0.0566,0.0566 0.80621,-1.00023 1.66579,-2.34852 2.14419,-3.36328 4.27131,-4.3016 6.48815,-2.86207 0.30067,0.19524 0.64085,1.15913 0.75595,2.14197 l 0.20929,1.78698 2.07887,-3.53283 c 2.65709,-4.51546 5.52574,-7.54799 7.14009,-7.54799 0.82756,0 1.34022,0.27817 1.79674,0.9749 0.56439,0.86136 0.58719,1.30682 0.19578,3.82447 -0.24366,1.56726 -0.94528,4.57377 -1.55917,6.68113 -2.13991,7.34592 -2.3363,9.39057 -0.82426,8.58134 1.10394,-0.59081 3.80708,-6.14978 4.80662,-9.88476 1.57432,-5.88272 3.54498,-8.919 6.7606,-10.41639 3.11186,-1.44908 5.78736,-1.03912 6.63915,1.01729 0.35058,0.84637 0.31291,1.48887 -0.18843,3.2134 -1.08583,3.73512 -5.07768,6.96993 -8.60112,6.96993 -0.82647,0 -0.97206,0.20327 -1.16765,1.63025 -0.23546,1.71786 -0.0167,3.15727 0.59955,3.9449 1.33962,1.71217 6.03,-1.46736 9.33948,-6.33111 2.3205,-3.41029 2.91935,-4.90604 3.11732,-7.78615 0.21725,-3.16071 1.51186,-5.88229 3.76748,-7.9201 1.39964,-1.2645 2.95163,-1.73098 2.95163,-0.88718 0,0.22853 -0.59651,1.38192 -1.32558,2.5631 -1.61284,2.61302 -2.07621,4.13405 -2.07621,6.81533 0,2.44979 0.71734,6.83703 1.1179,6.83703 0.32691,0 3.34107,-3.17205 5.38143,-5.66331 0.76331,-0.93201 1.51928,-1.56313 1.67991,-1.40249 0.51603,0.51603 -1.04729,2.84057 -4.01988,5.97724 l -2.89594,3.05579 0.1689,2.91755 c 0.24747,4.27494 -0.60026,5.67345 -3.8033,6.27434 -3.92281,0.73593 -4.38053,-3.03468 -0.84363,-6.94961 1.29669,-1.43527 1.37547,-1.65707 1.12245,-3.16005 -0.5529,-3.2843 -0.63805,-3.29364 -2.63543,-0.28917 -2.2443,3.37592 -5.33876,6.48153 -7.5014,7.52845 -2.94511,1.4257 -6.39677,0.81128 -7.36365,-1.31079 l -0.46303,-1.01624 -1.9024,2.70894 c -1.95216,2.77976 -3.67301,4.17663 -5.14842,4.17912 -2.09161,0.004 -2.06565,-3.34405 0.0863,-11.12903 0.74401,-2.69161 1.45306,-5.62565 1.57566,-6.52009 0.20015,-1.46023 0.14375,-1.62625 -0.55239,-1.62625 -1.75204,0 -8.02719,10.64393 -8.1519,13.82726 -0.0519,1.32557 -0.16935,1.49355 -1.12029,1.60258 -2.15835,0.24749 -2.57528,-1.24863 -1.75563,-6.2999 0.68521,-4.22276 -0.24415,-4.98572 -2.436,-1.99982 -2.63855,3.59443 -4.38448,6.96142 -4.38448,8.4554 0,1.58713 -1.03551,2.93531 -2.25456,2.93531 -0.83663,0 -1.5252,-1.04187 -1.5252,-2.3078 0,-0.67811 -0.2306,-0.49747 -1.16412,0.91189 -2.29107,3.45888 -4.70586,4.76524 -6.14631,3.32505 -0.68039,-0.68027 -0.83824,-1.34898 -0.9495,-4.0223 l -0.13344,-3.20639 -2.43554,2.63061 c -3.0468,3.29081 -5.75391,4.74777 -8.29039,4.46187 -1.01365,-0.11425 -2.06502,-0.52092 -2.56773,-0.9932 -0.9865,-0.92676 -1.43399,-1.02957 -1.13935,-0.26175 0.17439,0.45446 -0.83003,1.35191 -1.51307,1.35191 -0.10925,0 -0.40167,-0.67762 -0.64982,-1.50582 -0.24813,-0.8282 -0.7548,-1.78063 -1.12593,-2.11651 -0.63598,-0.57554 -0.76608,-0.42906 -2.26023,2.54525 -2.32064,4.61947 -3.94023,7.00108 -6.71698,9.87729 -2.76812,2.86728 -5.46788,4.7967 -8.22587,5.87874 -2.10659,0.82646 -4.60457,1.2564 -5.44065,0.93642 z m 4.44709,-1.62269 c 2.28992,-1.03939 5.48656,-4.20704 7.88855,-7.81703 2.31611,-3.48091 5.62888,-9.88179 5.28979,-10.22088 -0.33922,-0.33922 -3.34039,0.91116 -5.39411,2.24735 -4.36105,2.83739 -10.55928,10.65107 -10.9887,13.85272 -0.3782,2.81969 0.32488,3.24485 3.20447,1.93784 z m 90.05632,-18.74199 c 0.20275,-0.53325 0.36862,-1.74471 0.36862,-2.69212 0,-1.46048 -0.0832,-1.65349 -0.54707,-1.26853 -0.75907,0.62996 -1.8604,3.64318 -1.58957,4.34898 0.34771,0.90611 1.36045,0.68368 1.76802,-0.38833 z m -61.2029,-5.17296 c 2.4452,-1.61991 4.28921,-6.98153 2.82039,-8.20054 -1.19955,-0.99554 -3.33913,1.3051 -5.14001,5.52695 -0.60516,1.41872 -1.1049,2.7921 -1.11054,3.05196 -0.0167,0.77029 2.03848,0.5436 3.43016,-0.37837 z m 50.41599,-4.78755 c 1.74016,-0.9782 3.19705,-3.33314 3.46578,-5.60212 0.44088,-3.72252 -1.38764,-3.87762 -3.82445,-0.32441 -1.1339,1.65338 -2.84889,5.69729 -2.84889,6.7176 0,0.43925 1.81538,-0.008 3.20756,-0.79107 z"
       id="path29"
       inkscape:connector-curvature="0" />
    <path
       style="fill:#ffffff;stroke-width:0.37797621"
       d="m -235.72189,231.40588 c -2.59112,-0.77581 -3.67252,-3.01472 -2.85919,-5.91963 0.51386,-1.83532 2.52197,-4.27271 3.52019,-4.27271 0.87205,0 0.766,0.48991 -0.30821,1.42393 -2.21253,1.92377 -1.91773,5.87059 0.51372,6.87773 2.71459,1.12442 8.05001,-0.399 9.58106,-2.73567 2.01774,-3.07947 1.54112,-5.38737 -3.10095,-15.0154 -3.95187,-8.1965 -4.34321,-9.3292 -4.05728,-11.74345 0.40121,-3.38763 2.47778,-6.17354 5.92598,-7.95028 1.31166,-0.67584 2.3353,-0.87979 4.47309,-0.89119 2.57728,-0.0138 2.83639,0.0598 3.68527,1.04573 1.00073,1.16232 1.05258,1.34705 0.58503,2.08444 -0.24179,0.38134 -0.59033,0.22526 -1.47704,-0.66146 -0.93041,-0.93041 -1.47834,-1.16057 -2.76284,-1.16057 -2.33032,0 -4.60163,1.45108 -5.64503,3.60648 -1.4276,2.94901 -1.02556,5.01728 2.3521,12.10045 3.45809,7.25182 4.45907,10.33642 4.45907,13.74102 0,2.15465 -0.16623,2.79414 -1.11532,4.2907 -2.51086,3.9592 -9.3074,6.51594 -13.76965,5.17988 z"
       id="path31"
       inkscape:connector-curvature="0" />
    <path
       style="fill:#ffffff;stroke-width:0.37797621"
       d="m -208.17125,226.88701 c -0.38165,-0.42171 -0.75928,-1.57023 -0.85961,-2.61438 l -0.17893,-1.86225 -1.40832,1.48045 c -1.20398,1.26564 -1.63977,1.48044 -3.00359,1.48044 -2.07989,0 -3.00092,-0.52826 -3.65645,-2.09715 -1.56317,-3.74119 0.65633,-11.95914 4.18255,-15.48636 2.20776,-2.20838 5.25988,-3.02057 6.93689,-1.84595 0.64488,0.45169 0.83221,0.90203 0.74556,1.79229 -0.15028,1.54388 -1.25665,1.81923 -1.87314,0.46617 -0.89321,-1.96039 -2.79391,-0.95203 -4.45984,2.36603 -1.70131,3.38854 -2.84867,10.25622 -2.05779,12.31721 0.3955,1.03068 1.92348,0.70036 2.9167,-0.63054 1.50545,-2.01727 1.79844,-2.81237 2.7315,-7.41266 0.6814,-3.35956 1.08476,-4.5554 1.70692,-5.06055 0.99681,-0.80935 2.19151,-0.85702 2.48237,-0.0991 0.1187,0.30933 -0.42016,3.78297 -1.19747,7.7192 -0.78294,3.96473 -1.29297,7.46489 -1.14351,7.84756 0.24267,0.62136 0.35841,0.58047 1.15179,-0.40696 1.43694,-1.78836 3.43822,-6.93699 4.33932,-11.16364 1.0864,-5.09577 1.30542,-5.62323 2.45475,-5.9117 1.83698,-0.46105 2.03701,-0.1129 1.51897,2.64377 -0.25726,1.36902 -0.41654,2.48912 -0.35395,2.48912 0.0626,0 0.97445,-1.80171 2.02637,-4.0038 2.03755,-4.26542 4.16564,-7.46975 5.39943,-8.13005 1.27759,-0.68375 2.49742,-0.10893 2.90554,1.36917 0.50526,1.82988 -0.0164,5.13499 -2.02726,12.84355 -1.73102,6.63591 -2.18665,9.64206 -1.4986,9.88741 0.21822,0.0778 1.69355,-2.62529 3.27851,-6.00689 2.61716,-5.58385 2.92081,-6.47808 3.30712,-9.73915 0.23395,-1.97493 0.8565,-5.68843 1.38345,-8.25222 0.52695,-2.5638 0.86802,-4.75151 0.75795,-4.86159 -0.11008,-0.11008 -1.2864,-0.011 -2.61406,0.22023 -3.56291,0.62045 -5.91663,0.5503 -6.1987,-0.18475 -0.29053,-0.75711 0.57026,-1.35135 1.60659,-1.10909 0.72855,0.1703 7.66323,-0.70302 7.86927,-0.99102 0.051,-0.0713 0.39101,-1.23518 0.75557,-2.58644 0.73045,-2.70736 1.47052,-3.77977 2.60843,-3.77977 0.70357,0 0.73376,0.17375 0.49262,2.83483 -0.14129,1.55915 -0.20727,2.8343 -0.14663,2.83367 0.0606,-5.3e-4 1.8597,-0.3408 3.99792,-0.75595 4.98601,-0.96806 6.6075,-0.99158 6.4353,-0.0933 -0.0994,0.51875 -0.66692,0.71498 -2.63019,0.90951 -4.17033,0.41323 -8.20704,1.4435 -8.42013,2.14903 -0.10411,0.3447 -0.8784,4.53878 -1.72064,9.32018 -1.55385,8.82117 -2.02334,13.70263 -1.33176,13.84686 0.66623,0.13895 2.78835,-3.85996 3.21288,-6.05431 1.01607,-5.25204 3.2602,-9.59033 5.87338,-11.35425 0.8687,-0.58638 2.08248,-0.97604 3.37396,-1.08314 1.83818,-0.15243 2.07355,-0.0812 2.65276,0.80279 1.37081,2.09211 -0.34455,3.45545 -1.90885,1.51713 -0.71651,-0.88783 -0.98965,-1.00429 -1.55595,-0.66342 -1.76646,1.06325 -3.61891,5.23578 -4.54901,10.24634 -0.67001,3.60947 -0.43762,5.62618 0.68956,5.98393 1.70315,0.54056 3.85017,-2.8425 4.70087,-7.40716 0.99731,-5.35134 1.22546,-5.96242 2.46544,-6.60364 0.62213,-0.32172 1.29624,-0.4829 1.49802,-0.3582 0.63847,0.3946 0.40192,3.01516 -0.76705,8.49761 -1.26572,5.93616 -1.41812,7.9375 -0.60446,7.9375 0.74834,0 3.83286,-6.54103 4.3669,-9.26042 0.7742,-3.94231 1.93558,-7.91013 2.40213,-8.20676 0.2475,-0.15737 0.93949,-0.28873 1.53775,-0.29192 1.19123,-0.006 1.16842,-0.24147 0.40268,4.15195 -0.14706,0.84374 0.65563,-0.45689 2.21604,-3.59077 2.73633,-5.49552 4.57244,-7.74851 6.3148,-7.74851 2.55696,0 2.47242,3.50369 -0.34907,14.46784 -1.92125,7.46588 -2.24023,9.48238 -1.56587,9.89915 0.4458,0.27553 6.14921,-11.4303 6.76356,-13.8817 1.52531,-6.08642 5.12333,-10.10732 9.04431,-10.10732 1.8204,0 2.66142,0.62265 2.80799,2.07887 0.0978,0.9721 -0.0243,1.15005 -0.85623,1.24687 -0.73252,0.0853 -1.07795,-0.12321 -1.40931,-0.85045 -0.50912,-1.1174 -1.59552,-1.25225 -2.43235,-0.30192 -2.82877,3.21245 -5.29191,14.10723 -3.52159,15.57646 1.7846,1.4811 4.06904,-2.03502 5.31347,-8.17831 0.76127,-3.7581 1.06532,-4.60717 1.91175,-5.33861 0.55357,-0.47838 1.28456,-0.81258 1.62441,-0.74268 0.8766,0.1803 0.70557,3.18654 -0.48397,8.50651 -1.39872,6.25552 -1.59025,8.036 -0.86444,8.036 0.78657,0 2.35583,-2.87753 5.02176,-9.20832 2.02677,-4.81299 2.80841,-6.03149 3.45455,-5.38535 0.35871,0.3587 -1.26439,4.81873 -3.34859,9.20141 -3.0997,6.51808 -6.41576,9.08424 -7.71641,5.97137 -0.30122,-0.72093 -0.54767,-1.86407 -0.54767,-2.54032 v -1.22954 l -1.35529,1.39533 c -2.69214,2.7717 -6.13793,2.17399 -7.05713,-1.22415 -0.0837,-0.3095 -0.96325,1.00758 -1.9545,2.92684 -1.96989,3.81406 -3.46665,5.3844 -5.13211,5.3844 -1.7469,0 -2.26662,-0.85367 -2.26005,-3.71227 0.006,-2.41621 0.33523,-4.04373 2.40516,-11.87378 0.50915,-1.92596 1.03063,-4.12632 1.15886,-4.88968 0.29818,-1.77515 -0.39374,-2.28421 -1.40617,-1.03456 -2.07481,2.56092 -7.07734,14.47699 -7.07734,16.85825 0,1.75856 -0.86915,2.76216 -2.39212,2.76216 -0.78982,0 -1.01353,-0.18518 -1.02742,-0.85045 -0.0161,-0.77085 -0.11337,-0.72663 -1.03943,0.47247 -1.70194,2.20374 -3.13322,3.40179 -4.06404,3.40179 -1.0659,0 -2.06032,-1.30269 -2.06032,-2.69902 0,-0.56041 -0.1032,-1.28783 -0.22932,-1.6165 -0.19009,-0.49538 -0.35741,-0.43473 -0.97831,0.35461 -2.12654,2.70346 -6.08136,2.69203 -7.11268,-0.0206 -0.33304,-0.87596 -0.34433,-0.87211 -1.84693,0.63049 -1.25035,1.25035 -1.72741,1.4911 -2.75824,1.39197 -0.98263,-0.0945 -1.36962,-0.3819 -1.82858,-1.35798 l -0.58217,-1.23811 -1.49781,3.09672 c -2.04564,4.22936 -3.38545,5.61611 -5.42605,5.61611 -1.36354,0 -1.62477,-0.13734 -1.97713,-1.03944 -0.61743,-1.58072 -0.14651,-5.39193 1.36609,-11.0558 1.61555,-6.04936 2.33116,-9.70465 1.97052,-10.06529 -0.5492,-0.5492 -1.86411,1.27388 -3.83003,5.31019 -2.58965,5.31693 -4.75151,11.14928 -4.75151,12.8188 0,1.91449 -1.77213,3.02373 -2.93789,1.83893 -0.62115,-0.6313 -0.75441,-0.5574 -2.74182,1.52048 -2.25622,2.35892 -2.90403,2.59345 -3.95521,1.43191 z"
       id="path33"
       inkscape:connector-curvature="0" />
    <path
       style="fill:#ffffff;stroke-width:0.37797621"
       d="m -297.11003,214.18494 c -0.78541,-1.40345 0.94767,-4.15223 2.43954,-3.86928 1.05871,0.20079 1.1594,2.68514 0.14974,3.6948 -0.92854,0.92854 -2.12227,1.00898 -2.58928,0.17448 z"
       id="path35"
       inkscape:connector-curvature="0" />
    <path
       style="fill:#ffffff;stroke-width:0.37797621"
       d="m -282.58124,304.52555 c -3.3912,-0.82095 -7.24472,-3.0352 -9.7801,-5.6197 -1.73219,-1.76578 -3.51155,-4.47971 -7.81815,-11.92445 -3.06656,-5.30111 -8.49554,-14.68903 -12.06442,-20.86203 -3.56886,-6.17296 -6.47944,-11.3607 -6.46793,-11.52826 0.0254,-0.36799 2.22949,-2.15212 2.41573,-1.95533 0.14338,0.15153 12.88159,22.19182 19.61971,33.947 5.04292,8.79779 7.2844,11.4523 11.34472,13.43517 1.60889,0.7857 3.76233,1.47635 5.34149,1.71312 1.75895,0.26374 16.39254,0.35946 43.65625,0.28565 l 41.01041,-0.11108 2.21157,-0.84031 c 4.05264,-1.5399 7.21971,-4.00511 9.26885,-7.21482 0.62026,-0.97155 9.80637,-16.81935 20.41357,-35.21734 15.55893,-26.98666 19.50329,-33.56695 20.41121,-34.05149 0.61896,-0.33034 1.5773,-0.89672 2.12965,-1.25863 0.55234,-0.36191 1.10662,-0.55565 1.23173,-0.43053 0.37635,0.37634 -0.78953,2.48428 -14.64592,26.48024 -7.32266,12.6811 -16.39478,28.41437 -20.16026,34.9628 -6.01433,10.45935 -7.16963,12.23159 -9.50664,14.58341 -2.88561,2.90391 -5.88951,4.62495 -9.82677,5.63015 -3.25352,0.83061 -85.3461,0.80881 -88.7847,-0.0236 z"
       id="path37"
       inkscape:connector-curvature="0" />
    <path
       style="fill:#ffffff;stroke-width:0.37797621"
       d="m -279.67573,293.42236 c -1.74342,-0.41524 -4.35238,-2.04536 -5.25871,-3.28573 -0.43258,-0.592 -6.36575,-10.74282 -13.18483,-22.55737 -11.39361,-19.74027 -12.34902,-21.53025 -11.7902,-22.08911 0.33446,-0.33445 0.67842,-0.53319 0.76433,-0.44162 0.0859,0.0916 5.80158,9.94662 12.70145,21.90013 6.89986,11.9535 12.90002,22.11482 13.33367,22.58073 0.43366,0.4659 1.49429,1.18877 2.35697,1.60639 1.54127,0.74612 2.28078,0.7593 42.6024,0.7593 45.30705,0 42.50264,0.15052 44.98755,-2.41477 0.68275,-0.70485 9.23514,-15.16888 19.00531,-32.14235 15.01879,-26.09169 17.88093,-30.84265 18.52084,-30.74332 0.43834,0.068 0.70446,0.35233 0.63233,0.67549 -0.0685,0.30689 -8.11457,14.42026 -17.88017,31.36304 -14.11077,24.48142 -18.10675,31.13368 -19.46607,32.40582 -3.09725,2.89865 -0.59253,2.75075 -45.84707,2.70727 -22.1542,-0.0212 -40.81921,-0.16703 -41.4778,-0.3239 z"
       id="path39"
       inkscape:connector-curvature="0" />
    <path
       style="fill:#ffffff;stroke-width:0.37797621"
       d="m -267.92916,281.33074 c 0.12276,-0.6341 0.31823,-1.64713 0.43438,-2.2512 0.18162,-0.94449 -0.004,-1.27088 -1.32277,-2.33098 -0.84368,-0.67802 -1.44183,-1.32488 -1.32923,-1.43746 0.1126,-0.1126 1.0055,-0.29681 1.98423,-0.40933 1.66658,-0.19161 1.83946,-0.31846 2.72444,-1.9989 0.51971,-0.98685 1.02998,-1.7943 1.13393,-1.7943 0.10394,0 0.61421,0.80745 1.13393,1.7943 0.77097,1.46396 1.15369,1.81337 2.07886,1.89793 2.91296,0.26625 2.96856,0.34449 1.30995,1.84293 -1.5952,1.44116 -1.60852,1.51437 -0.90185,4.95604 0.17533,0.85392 0.17317,0.85368 -1.72267,-0.18899 l -1.89822,-1.04397 -1.92409,1.05842 -1.92408,1.05841 z"
       id="path41"
       inkscape:connector-curvature="0" />
    <path
       style="fill:#ffffff;stroke-width:0.37797621"
       d="m -243.51549,282.68626 c 0,-0.0756 0.17223,-1.04558 0.38273,-2.15556 l 0.38274,-2.01814 -1.73463,-1.76112 -1.73461,-1.76109 2.31092,-0.26144 2.31091,-0.26146 1.00959,-2.05851 c 0.55527,-1.13218 1.10881,-2.05851 1.23009,-2.05851 0.12127,0 0.67481,0.92633 1.23008,2.05851 l 1.00958,2.05851 2.31092,0.26146 2.31092,0.26144 -1.69818,1.74329 -1.69818,1.74328 0.33523,2.05846 c 0.18437,1.13213 0.27207,2.12159 0.19489,2.19877 -0.0772,0.0772 -1.00769,-0.29919 -2.0678,-0.8364 l -1.92746,-0.97671 -1.87732,0.95131 c -1.84024,0.93252 -2.28042,1.08963 -2.28042,0.81391 z"
       id="path43"
       inkscape:connector-curvature="0" />
    <path
       style="fill:#ffffff;stroke-width:0.37797621"
       d="m -213.76788,281.4061 -1.80008,-0.98991 -1.73524,0.84304 c -0.95439,0.46368 -1.79986,0.77845 -1.87883,0.69948 -0.079,-0.079 0.003,-0.92615 0.1813,-1.88259 0.31571,-1.6899 0.28387,-1.77909 -1.12669,-3.15646 -0.79837,-0.77959 -1.36251,-1.50651 -1.25364,-1.61536 0.10886,-0.10887 0.99849,-0.29001 1.97696,-0.40253 1.67129,-0.19222 1.83966,-0.317 2.78036,-2.06053 l 1.00135,-1.85594 0.84529,1.66695 c 0.98154,1.93559 1.32611,2.22025 2.69721,2.22811 2.20379,0.0127 2.36513,0.37616 0.85387,1.92384 l -1.40456,1.43838 0.39828,2.00705 c 0.21905,1.1039 0.36818,2.0384 0.33138,2.07672 -0.0368,0.0383 -0.87692,-0.37579 -1.86696,-0.92025 z"
       id="path45"
       inkscape:connector-curvature="0" />
    <path
       style="fill:#ffffff;stroke-width:0.37797621"
       d="m -252.77591,257.63815 c -0.62366,-0.32271 -2.4102,-1.90473 -3.97009,-3.51557 -2.96179,-3.05855 -4.85135,-4.09186 -6.65479,-3.63924 -0.66771,0.16759 -0.8903,0.42858 -0.75601,0.88639 0.10469,0.35687 0.23623,1.49931 0.29232,2.53875 0.0785,1.45513 -0.0255,1.88987 -0.45234,1.88987 -0.41688,0 -0.58244,-0.59397 -0.66772,-2.39554 -0.0986,-2.08378 -0.19701,-2.36104 -0.75595,-2.13048 -1.47185,0.60714 -1.96548,0.63336 -1.96548,0.10441 0,-0.29758 0.59531,-0.82495 1.32292,-1.1719 0.7276,-0.34697 1.32291,-0.89199 1.32291,-1.21115 0,-0.41434 0.24507,-0.51877 0.85707,-0.36515 0.95464,0.23958 4.68079,-1.97771 6.31458,-3.7576 0.79302,-0.86393 0.85042,-1.07632 0.37797,-1.39836 -1.60358,-1.09306 -11.8115,0.92299 -13.36498,2.63958 -0.60298,0.66628 -0.60406,0.75592 -0.0162,1.3438 0.76179,0.76178 0.38215,1.2959 -0.51767,0.72831 -1.13802,-0.71784 -0.80734,-2.45062 0.65584,-3.43667 3.23557,-2.18045 12.04283,-3.37919 13.91437,-1.89386 1.30827,1.0383 -0.23623,3.32272 -3.58064,5.29595 -1.54407,0.91104 -1.55864,1.25355 -0.066,1.55208 0.82338,0.16467 2.20215,1.29473 4.6302,3.79497 3.80813,3.92136 4.49986,4.24479 8.38889,3.92226 1.13374,-0.094 2.06135,-0.0492 2.06135,0.0996 0,0.88376 -5.71461,0.9765 -7.37054,0.11959 z"
       id="path47"
       inkscape:connector-curvature="0" />
    <path
       style="fill:#ffffff;stroke-width:0.06681738"
       d="m -245.42811,253.93259 c -0.2614,-0.13087 -0.29484,-0.21085 -0.32611,-0.78 -0.0136,-0.24852 -0.0539,-0.56425 -0.0895,-0.70159 -0.0356,-0.13735 -0.10047,-0.54287 -0.14423,-0.9012 l -0.0796,-0.65146 h -0.37121 c -0.20416,0 -0.46354,-0.028 -0.5764,-0.0623 -0.11286,-0.0342 -0.32547,-0.0971 -0.47247,-0.13964 -0.34858,-0.10092 -0.64885,-0.36211 -0.83132,-0.72314 -0.14054,-0.2781 -0.14206,-0.30017 -0.036,-0.52374 0.12483,-0.26307 0.48698,-0.4554 0.72186,-0.38333 0.08,0.0246 0.23623,0.14235 0.34722,0.26184 0.15919,0.17137 0.27685,0.22754 0.55748,0.26611 0.19563,0.0269 0.38183,0.0228 0.41378,-0.009 0.0329,-0.0329 -0.0132,-0.86868 -0.10633,-1.92812 -0.0904,-1.02854 -0.14572,-1.99996 -0.12285,-2.15876 0.023,-0.15954 0.11525,-0.37626 0.20626,-0.48442 0.31167,-0.3704 0.88228,-0.20829 1.03148,0.29304 0.0239,0.0803 0.0469,0.50681 0.0512,0.94782 0.0115,1.19962 0.15902,2.9228 0.26479,3.09393 0.0503,0.0814 0.30523,0.0379 1.34443,-0.22942 1.16979,-0.30094 1.42018,-0.35623 1.47089,-0.32491 0.0309,0.0191 0.0922,0.14404 0.13634,0.27766 0.0742,0.22479 0.0683,0.25196 -0.0786,0.36345 -0.14824,0.11248 -0.92882,0.51486 -1.46176,0.75354 -0.12863,0.0576 -0.4293,0.16552 -0.66817,0.23979 -0.65905,0.20495 -0.63549,0.17018 -0.55225,0.81484 0.0396,0.30633 0.12404,0.89069 0.18777,1.29857 0.0649,0.41572 0.0963,0.84598 0.0713,0.97907 -0.0735,0.39161 -0.51711,0.59721 -0.888,0.41153 z"
       id="path49"
       inkscape:connector-curvature="0" />
    <path
       style="fill:#ffffff;stroke-width:0.06681738"
       d="m -252.49889,254.63458 c -0.70678,-0.24659 -0.76106,-0.27737 -0.93691,-0.53113 -0.17774,-0.25648 -0.18197,-0.284 -0.15267,-0.99499 0.0166,-0.40217 0.0613,-0.77078 0.0994,-0.8192 0.0381,-0.0484 0.11728,-0.23231 0.17601,-0.40868 0.14971,-0.44968 0.65116,-1.17869 1.08096,-1.57152 0.52609,-0.4808 0.92628,-0.68799 1.40794,-0.72892 0.46106,-0.0392 0.6767,0.0432 0.998,0.38134 0.19578,0.20603 0.20045,0.22677 0.20045,0.89128 0,0.59049 -0.0219,0.72448 -0.16608,1.01443 -0.21045,0.42336 -0.59638,0.95856 -0.91275,1.26582 -0.13503,0.13116 -0.22723,0.25673 -0.20488,0.27909 0.0433,0.0433 2.04714,-0.1651 2.14121,-0.22268 0.0688,-0.0421 1.2834,-0.21666 1.51996,-0.21844 0.14929,0 0.18148,0.038 0.23935,0.29086 l 0.0669,0.29218 -0.4398,0.13816 c -2.31655,0.72777 -4.55214,1.13949 -5.11702,0.9424 z m 0.74154,-2.04388 c 0.14782,-0.14068 0.35079,-0.36806 0.45105,-0.50528 0.19867,-0.27186 0.50956,-0.9031 0.5106,-1.03674 0.001,-0.17724 -0.26551,-0.07 -0.58196,0.23386 -0.4712,0.45247 -0.88737,1.18682 -0.88737,1.56581 0,0.16319 0.14041,0.0919 0.50768,-0.25765 z"
       id="path51"
       inkscape:connector-curvature="0" />
    <path
       style="fill:#ffffff;stroke-width:0.06681738"
       d="m -241.03107,253.38728 c -0.37376,-0.37833 -0.98556,-2.71656 -0.85103,-3.25258 0.0447,-0.17793 0.34153,-0.37227 0.56866,-0.37227 0.39297,0 0.5398,0.19299 0.67634,0.88898 0.0604,0.30805 0.0941,0.37282 0.16384,0.31498 0.0483,-0.04 0.10706,-0.17576 0.13066,-0.30159 0.0695,-0.37066 0.55111,-1.26511 0.87522,-1.6256 0.38168,-0.4245 0.89791,-0.71626 1.44199,-0.81495 0.55209,-0.10012 1.22852,-0.0321 1.40158,0.14097 0.30935,0.30935 0.027,0.86268 -0.4402,0.86268 -0.37675,0 -1.05261,0.19515 -1.23619,0.35692 -0.16574,0.14608 -0.3917,0.46313 -0.65043,0.9126 -0.20878,0.36272 -0.4046,1.05071 -0.49114,1.72559 -0.0607,0.4731 -0.12287,0.68421 -0.26989,0.91604 -0.21423,0.33779 -0.39658,0.43198 -0.83641,0.43198 -0.24032,0 -0.33828,-0.0373 -0.483,-0.18375 z"
       id="path53"
       inkscape:connector-curvature="0" />
    <path
       style="fill:#ffffff;stroke-width:0.06681738"
       d="m -235.63328,252.97262 c -0.52133,-0.15798 -0.79603,-0.57806 -0.79603,-1.21734 0,-0.4526 0.0649,-0.62775 0.45357,-1.22444 0.22602,-0.34698 1.27675,-1.41642 1.68458,-1.71461 0.95471,-0.69797 1.79424,-0.75419 2.15413,-0.14422 0.14464,0.24516 0.16339,0.25193 0.42362,0.15298 0.38151,-0.14505 0.82994,0.15666 0.82994,0.5584 0,0.23061 -0.28028,0.81349 -0.50473,1.04963 -0.0886,0.0932 -0.18017,0.26501 -0.20353,0.38174 -0.12301,0.61505 0.18319,0.78947 1.27621,0.72689 0.67974,-0.0389 1.92659,-0.1982 2.17976,-0.27845 0.0815,-0.0259 0.13434,0.0444 0.21302,0.28337 0.0575,0.17476 0.099,0.32068 0.092,0.32428 -0.007,0.004 -0.23808,0.0845 -0.51371,0.17983 -1.58059,0.54671 -2.51144,0.68972 -3.33691,0.51269 -0.26092,-0.056 -0.41345,-0.14619 -0.67773,-0.4009 -0.18756,-0.18079 -0.36337,-0.32869 -0.3907,-0.32869 -0.0273,0 -0.21979,0.12181 -0.42772,0.27072 -0.61423,0.43984 -1.18005,0.73292 -1.61138,0.83465 -0.44691,0.10541 -0.58856,0.11102 -0.84443,0.0335 z m 1.25655,-1.45282 c 0.48235,-0.23445 1.42133,-0.972 1.55471,-1.22124 0.0597,-0.1115 0.029,-0.17383 -0.19586,-0.39873 l -0.26658,-0.26659 -0.3196,0.23818 c -0.73353,0.54668 -1.70565,1.70701 -1.58868,1.89626 0.0566,0.0915 0.21962,0.042 0.81601,-0.24788 z"
       id="path55"
       inkscape:connector-curvature="0" />
    <path
       style="fill:#ffffff;stroke-width:0.06681738"
       d="m -226.57678,252.13749 c -0.12804,-0.12803 -0.16426,-0.23426 -0.16517,-0.48442 -5.3e-4,-0.17624 -0.0423,-0.51586 -0.0925,-0.75473 -0.0502,-0.23889 -0.11356,-0.65981 -0.14072,-0.93546 -0.0768,-0.77943 -0.0924,-0.80179 -0.55667,-0.80179 -0.59195,0 -1.05828,-0.11038 -1.32466,-0.31356 -0.2777,-0.21182 -0.55699,-0.62516 -0.55699,-0.82433 0,-0.22278 0.19327,-0.53314 0.37504,-0.60225 0.31205,-0.11864 0.47462,-0.0733 0.74097,0.20664 0.2265,0.23805 0.3034,0.2753 0.63979,0.31001 l 0.38235,0.0395 -0.002,-0.19312 c -10e-4,-0.10618 -0.05,-0.65913 -0.10862,-1.22875 -0.0586,-0.56962 -0.11995,-1.47932 -0.13636,-2.02155 l -0.0298,-0.98588 0.20014,-0.20013 c 0.13738,-0.13739 0.26596,-0.20013 0.41011,-0.20013 0.51271,0 0.66892,0.27846 0.66892,1.19237 0,0.69546 0.18386,3.20348 0.2417,3.29707 0.075,0.12131 0.58225,0.0341 1.82964,-0.31459 0.99391,-0.27779 0.97583,-0.2771 1.09725,-0.0423 0.19625,0.37952 0.16239,0.42288 -0.64623,0.8278 -0.79181,0.39653 -1.47204,0.67421 -1.84199,0.75197 -0.12192,0.0257 -0.23677,0.0859 -0.25522,0.13399 -0.0316,0.0824 0.0986,1.06754 0.23845,1.8043 0.11456,0.60341 0.0879,1.13025 -0.0671,1.32733 -0.19275,0.24504 -0.66097,0.25131 -0.90022,0.0122 z"
       id="path57"
       inkscape:connector-curvature="0" />
    <path
       style="fill:#ffffff;stroke-width:0.06681738"
       d="m -221.64976,251.86005 c -0.54918,-0.28199 -0.78284,-1.00764 -0.91664,-2.8467 l -0.0472,-0.64884 0.20306,-0.20307 c 0.25458,-0.25458 0.59285,-0.2758 0.84053,-0.0527 0.14794,0.13324 0.17502,0.23386 0.2382,0.88532 0.0935,0.96388 0.1865,1.54689 0.27241,1.70741 0.048,0.0897 0.14007,0.13007 0.29676,0.13007 0.20539,0 1.0298,-0.14975 1.32161,-0.24006 0.11706,-0.0362 0.19301,0.0875 0.28938,0.47149 0.0492,0.19587 -0.0746,0.28467 -0.8498,0.60992 -0.68788,0.28858 -1.31264,0.35954 -1.6483,0.18719 z"
       id="path59"
       inkscape:connector-curvature="0" />
    <path
       style="fill:#ffffff;stroke-width:0.06681738"
       d="m -217.52578,251.61449 c -0.17814,-0.13676 -0.2771,-0.38751 -0.23534,-0.59632 0.0859,-0.4296 0.52088,-0.78594 0.85329,-0.699 0.10032,0.0262 0.22469,-0.0249 0.40137,-0.16476 0.42902,-0.33977 0.36686,-0.37266 -0.63989,-0.33853 -0.49274,0.0167 -1.03523,0.01 -1.20554,-0.0161 -0.39052,-0.0586 -0.74091,-0.35338 -0.84908,-0.71443 -0.2296,-0.76634 0.48213,-1.56697 2.63763,-2.96706 0.52725,-0.3425 0.94112,-0.49858 1.32187,-0.49858 0.34211,0 0.49935,0.0852 0.63261,0.34292 0.19016,0.36772 0.0509,0.54428 -0.73183,0.92792 -0.37175,0.18222 -0.85632,0.46416 -1.07682,0.62654 -0.8109,0.59716 -1.23057,0.94427 -1.23331,1.02007 -0.002,0.0578 0.32928,0.0681 1.28977,0.0403 0.71091,-0.0206 1.3677,-0.0185 1.45952,0.004 0.0918,0.023 0.24682,0.12176 0.34445,0.21939 0.19511,0.19513 0.23971,0.5842 0.10775,0.94007 -0.14415,0.38872 -1.57161,1.5916 -2.22532,1.87523 -0.24346,0.10562 -0.71232,0.10443 -0.85113,-0.003 z"
       id="path61"
       inkscape:connector-curvature="0" />
    <path
       style="fill:#ffffff;stroke-width:0.06681738"
       d="m -221.76431,246.3333 c -0.26218,-0.26217 -0.34964,-0.61597 -0.24151,-0.97692 0.0588,-0.19606 0.1327,-0.27648 0.34038,-0.37013 0.22348,-0.10078 0.29654,-0.10671 0.4633,-0.0376 0.32472,0.1345 0.41252,0.28433 0.44756,0.76372 0.047,0.64264 -0.0774,0.84005 -0.53057,0.84185 -0.20303,0 -0.30402,-0.0457 -0.47916,-0.22088 z"
       id="path63"
       inkscape:connector-curvature="0" />
    <path
       style="fill:#ffffff;stroke-width:0.06681738"
       d="m -210.9445,250.80987 c -0.1658,-0.14259 -0.18483,-0.21096 -0.2334,-0.83789 -0.0291,-0.37544 -0.0859,-0.83928 -0.12634,-1.03073 -0.0404,-0.19146 -0.0953,-0.51348 -0.12192,-0.71562 l -0.0485,-0.36748 -0.59912,-0.0499 c -1.14667,-0.0956 -1.81061,-0.63293 -1.67502,-1.35567 0.0857,-0.4568 0.69088,-0.59817 1.02668,-0.23982 0.099,0.10565 0.24566,0.22593 0.32593,0.26728 0.14148,0.0729 0.63681,0.10539 0.69651,0.0457 0.0162,-0.0161 -0.0218,-0.67022 -0.0844,-1.45329 -0.15697,-1.96256 -0.15887,-2.86919 -0.006,-3.05431 0.18134,-0.22017 0.49908,-0.28332 0.75853,-0.15077 0.11936,0.061 0.23918,0.15598 0.26626,0.2111 0.0271,0.0551 0.0838,0.77676 0.12594,1.60362 0.0728,1.42638 0.19281,2.55184 0.28169,2.64071 0.0603,0.0603 1.07672,-0.17095 2.32605,-0.52922 0.20213,-0.058 0.38679,-0.10575 0.41036,-0.10618 0.0236,0 0.093,0.12444 0.15419,0.27747 0.10541,0.26345 0.10491,0.28454 -0.009,0.39608 -0.18849,0.18386 -1.39041,0.75444 -2.0919,0.99309 -0.34912,0.11875 -0.65388,0.23567 -0.67723,0.2598 -0.0234,0.0241 -0.0184,0.19423 0.011,0.37798 0.3739,2.33503 0.38038,2.53026 0.0936,2.81704 -0.20853,0.20855 -0.56142,0.209 -0.80318,0 z"
       id="path65"
       inkscape:connector-curvature="0" />
    <path
       style="fill:#ffffff;stroke-width:0.13363476"
       d="m -206.91813,250.10145 c -0.24875,-0.24877 -0.32801,-0.46993 -0.32801,-0.91538 0,-0.69004 0.44973,-1.39769 1.52376,-2.39761 1.14817,-1.06891 2.0757,-1.34204 2.66802,-0.7856 0.17998,0.1691 0.39877,0.25752 0.52104,0.21061 0.11593,-0.0445 0.33575,-0.014 0.4885,0.0677 0.3801,0.20341 0.35712,0.76213 -0.0564,1.37064 -0.35287,0.5193 -0.43646,1.09495 -0.18183,1.25233 0.22455,0.13877 1.79097,0.087 2.62862,-0.0869 0.74004,-0.15364 0.9529,-0.0743 0.95885,0.35748 0.003,0.20344 -1.72539,0.73253 -2.67348,0.81849 -0.95075,0.0862 -1.33266,-0.003 -1.83609,-0.42601 l -0.38953,-0.32776 -0.4968,0.33758 c -1.31237,0.89178 -2.27981,1.07127 -2.82667,0.52441 z m 1.78118,-1.19685 c 0.34668,-0.17719 0.83628,-0.53668 1.08801,-0.79888 0.44729,-0.46588 0.45213,-0.48284 0.21315,-0.74692 -0.1345,-0.14862 -0.28032,-0.26935 -0.32405,-0.26831 -0.14355,0.003 -1.23302,1.03912 -1.56178,1.48473 -0.55131,0.74727 -0.39987,0.83257 0.58467,0.32938 z"
       id="path67"
       inkscape:connector-curvature="0" />
  </g>
</svg>
